<?xml version="1.0" encoding="UTF-8" standalone="no"?>
<!DOCTYPE svg PUBLIC "-//W3C//DTD SVG 1.1//EN" "http://www.w3.org/Graphics/SVG/1.1/DTD/svg11.dtd">
<!-- Created with Vectornator (http://vectornator.io/) -->
<svg stroke-miterlimit="10" style="fill-rule:nonzero;clip-rule:evenodd;stroke-linecap:round;stroke-linejoin:round;" version="1.1" viewBox="0 0 204 35" xml:space="preserve" xmlns="http://www.w3.org/2000/svg" xmlns:xlink="http://www.w3.org/1999/xlink">
<defs/>
<g id="Untitled">
<path d="M93.0307 11.1898C92.7707 10.9398 92.4206 10.8198 91.9706 10.8198C91.5206 10.8198 91.1707 10.9498 90.9207 11.1998C90.6707 11.4498 90.5407 11.8098 90.5407 12.2698L90.5407 17.8898C90.5407 18.8498 90.2806 19.5898 89.7506 20.1598C89.2206 20.7198 88.5607 20.9898 87.7007 20.9898C86.9607 20.9898 86.4207 20.7998 86.1007 20.4198C85.7607 20.0198 85.5907 19.3698 85.5907 18.4898L85.5907 12.2798C85.5907 11.8198 85.4606 11.4498 85.1906 11.1998C84.9306 10.9498 84.5807 10.8298 84.1407 10.8298C83.7007 10.8298 83.3407 10.9598 83.0907 11.2098C82.8407 11.4598 82.7107 11.8198 82.7107 12.2798L82.7107 18.4898C82.7107 19.5598 82.8706 20.4698 83.1906 21.1998C83.5206 21.9498 84.0407 22.5298 84.7307 22.9098C85.4007 23.2898 86.2507 23.4798 87.2407 23.4798C88.2307 23.4798 89.1607 23.2198 89.9207 22.6898C90.1607 22.5198 90.3807 22.3398 90.5807 22.1198C90.6107 22.4998 90.7307 22.7998 90.9507 23.0298C91.2007 23.2898 91.5606 23.4298 92.0006 23.4298C92.8906 23.4298 93.4007 22.8898 93.4007 21.9598L93.4007 12.2898C93.4007 11.8298 93.2706 11.4598 93.0006 11.2098L93.0307 11.1898Z" fill="#020001" fill-rule="nonzero" opacity="1" stroke="none"/>
<path d="M121.751 14.67C121.421 13.92 120.911 13.35 120.251 12.97C119.601 12.6 118.761 12.41 117.771 12.41C116.781 12.41 115.821 12.6601 115.011 13.1501C114.731 13.3201 114.471 13.5201 114.241 13.7601L114.241 8.74004C114.241 8.28004 114.111 7.92002 113.841 7.66002C113.331 7.18002 112.281 7.16002 111.751 7.66002C111.491 7.91002 111.361 8.28004 111.361 8.74004L111.361 23.5801C111.361 24.0401 111.491 24.4 111.751 24.66C112.011 24.92 112.361 25.05 112.791 25.05C113.711 25.05 114.241 24.5101 114.241 23.5801L114.241 17.99C114.241 17.02 114.501 16.28 115.051 15.72C115.591 15.16 116.301 14.8901 117.221 14.8901C117.981 14.8901 118.511 15.08 118.841 15.47C119.181 15.88 119.351 16.56 119.351 17.49L119.351 23.5801C119.351 24.0401 119.481 24.41 119.741 24.66C120.001 24.91 120.351 25.05 120.801 25.05C121.251 25.05 121.601 24.92 121.851 24.66C122.101 24.4 122.221 24.0401 122.221 23.5801L122.221 17.37C122.221 16.3 122.061 15.39 121.741 14.66L121.751 14.67Z" fill="#020001" fill-rule="nonzero" opacity="1" stroke="none"/>
</g>
</svg>
